<mxfile host="Electron" agent="Mozilla/5.0 (Windows NT 10.0; Win64; x64) AppleWebKit/537.36 (KHTML, like Gecko) draw.io/24.7.17 Chrome/128.0.6613.36 Electron/32.0.1 Safari/537.36" version="24.7.17">
  <diagram name="Page-1" id="do36TqxPjK4vU5IllulZ">
    <mxGraphModel dx="946" dy="620" grid="1" gridSize="10" guides="1" tooltips="1" connect="1" arrows="1" fold="1" page="1" pageScale="1" pageWidth="2339" pageHeight="3300" math="0" shadow="0">
      <root>
        <mxCell id="0" />
        <mxCell id="1" parent="0" />
        <mxCell id="UVRk4LwdsmJc4tpfmAYj-1" value="" style="shape=image;verticalLabelPosition=bottom;labelBackgroundColor=default;verticalAlign=top;aspect=fixed;imageAspect=0;image=data:image/png,iVBORw0KGgoAAAANSUhEUgAAAO0AAAIpCAYAAABOq78EAAAAAXNSR0IArs4c6QAAAARnQU1BAACxjwv8YQUAAAAJcEhZcwAADsEAAA7BAbiRa+0AAGc8SURBVHhe7d0HfBTXuTbwZ3tfrXpvSEL03ovp2HQwYBsDxnGSL05PbpKbxLk3Nz03zTdxbMdxYiem2cbYFNN77wJRBaj33lar7eWbGY0aCFDZFbPi/fMb0JztYp89Z2ZnzivyMEAI8Rti/l9CiJ/wSk/bWF+KyvxL/ForfXAMDOGDIZbK+RZCSE95pad12hrhMudBJ21dlJ481BSmobbkKtxuF39NQkhPeaWnra/IQm3+XoQE8g0M9l6tFqDWpIBHrIJIxF/QBVK5Gv1GLufXCCEsr4W2oegQwkPvHwY7mF7WAwm/9hAutjdufSpOB1BaLcOASV/gWwghLK/uiBIx3em9i1wihUIieugiYxYJcz2JWNayyOUP7pqdBQfxxpubcepWJWjgTZ40j33vsZtd2L8629977Mi9kQ9ZWCjCIoM704cT0qe0DI9dzPC0srISdXV13AUPExISwi3NmofHEWEKvqVzWgLLLvfweJzIL5XeNzz2mO9ix8ZTcCaPx9zpg6GnL63IE6YltBaLBXv27MGuXbtQXV3NXdiR8PBwrF69GtOnT+dbuhdaLqvtN2Pb6Ti0HtTf2IuPL9ZjwOT5mNo/AN3Yv0WIX2vpp1QqFebOnYtFixYhNDSUb20vOjoaq1atwlNPPcW3dE9LD9vZIXEztxHZuTWQa0IQG62nwJInUrvBpU6nw+zZs7FgwQKuR20rNjYWK1euxJQpUyAWd39M2hJYdukiZ20e8uscUIf2Q4SaIkueTPelT6/XY9asWe2CGx8fj+XLl2PSpEmQy7t/dJOL6Vm5IXE3Ags4UJVXDKNDhsjkGCgps+QJ1WGXGRAQgBkzZmD+/PkYO3Ysli1bhokTJ0KpVPLX6DpuNMz9xa12mcdWg5zSWjiVsUiJUNDQmDyxHjjOZYM7c+ZMrFu3DhMmTOC2ebuL61wfstPp0TywVhajvMYIbcJAhMj4ZkKeQA/dOGWDGxcXB7Vazbd0Hde59iiwDI8N5SWlqGtQI3lgMKR8MyFPou7vUeoENrDd2kt8D09jFUrLimAKHIRUAx1OQZ5sPgtty5CYDW2PeGCqrkRZUS0ihg2BhjZmyRPOJ6HlRsM9HRK3EEEbNxyL/9/38OxgFe2AIk88r4XW7fbA4fTAziwOmwdOB7MwP/dkaSYSiSGRyiChxBLinVPzTDWFKM0+xa95D3s+beLwJfwaIYTlldASQnqPT/ceE0K8j0JLiJ+h0BLiZyi0hPgZwYT2zJkzKC8v59cIIQ8imNCyp/9ptVp+jRDyIIL5yqc89xz3fW9bYqkModGDoQ1J4VsIIYIJbcHNfZA5M6FsM82UxSKC2WFAeL8J0IUk862EPNkEFVqVJxOqNufZs2cImUwi1JqkEIm7d3ZPcPRQhCdO4NcI8X8+C63D4YBUyoRN1LkDhtnQBsiKoFG3D6eH+ePiThXqRGidTv4H5nbMq6o3uuDRDEZk8lSmpQ7H/vw60lOW4MVZoxB233w1HlRcO479Jy4jbOF38HQC7VgnwuSzd+aRI0eQl5fH9JY9OzdPxPyRMoFlT3x/2NJ0RlFri0gkgaRLnbMIhsThmLX4WYwOp8AS4fLZu/PChQvYtGkT8vPzexzch2Gzyk4Y5436IHJdIKLiEhDS/Zl1CPE5n3YpbHA3btzI9bi+wGbVzfzFTRjXWY4GFN9Jx5njR3Hs9EXcKWloybvNWIXCnCxUmNl7dqImPweFZSUoyLqB86eO4eiJM7ieWwNH09UJeSx8Pg68ePEi1q9f7/Xgtgssu9IpNpRfP4PD+/di757Pse2TDXj/39uQXsHG0IO6nKs4uH0rLpaxd9iIW7s/xqbNG/HZnn3Yt2c3tm/dgHf+vpG5nGJLHp9e2Xi7fPky1+NmZ2fzLT3TvcCyLKisFSNl1lr88Jf/i199fx0GmY5i8567zCUdqUN+rglho5fg2z/9Lf73v7+JCc6j2HSkqGsPS4gX9doel/T0dNy6dYtf676WwHZrOhs1+k2cjnEDY6CVy6GLHoFnlo+B+cwZFHU4xJYhcvRUTBraDwalFKrQQZgzox/K7hbQEJk8Nr0WWnbS82HDhvFr3dMS2G7v15JDrWbr3/KrIhGUkf0Qbi4FN0K+jxIBBg1kstZfk1Krh8Rq8cZ+L0K6pVdCO378eK7SHnt8cXe1C2yXe9iHYItfe0RduEv2SyhvPgFCusbnoWWrE6xduxYxMTF8S9d5L7A2NDY64OK+I2J4PLAX30WxLgqRNJ0y8RM+DW1zYNmKe93lvcCyrLi152PsPHcLNY0W1OecxMZ/HkfAjOmIo9ASP+Gz0LKBXbNmDdfDdvZQxo6wnaLX5lAWR2HyrGTUHvgLXlo4Bwu/+iZKhn0d31qSABlNz0r8hM+OPWaPgmLD2pNjj7kjiVsPJ+4iDxpMdjiVzccee+B2uuBmnw7z3FwuN9Mi4uZTlkrFzE/MNdh29nlLpJCI2Os7meuzh0M2Xc7yuB1wuMSQy6hrJo+Hz3patvB0T3rYngW2IyKIpVJImUBKZXIolEoolQrI+MBy12CeM3uSQ9Ok6Oz1mUC3CSxLJJZRYMlj1St7jzvL7nDDanOjkVlsZmax92xpW6WAkL5CMOfTVuRdRGNdEb/mPfrQZO6cWkL6CsGElhDSOYIaHhNCHo1CS4ifodAS4mcotIT4GQotIX6GQkuInxHMVz4lmSdhqmk/JY1YIkNY3AjowwbwLYQQwfS0TnsjAlR1iAhsXbTSSpRln4Ox4g5/LUKIYHrapgoDWVC3mb6UfWamRqCmnm94lHteCfvSgmJGtJww4GBnnBDLIZdJIe7+YdGEPFY+C63FYoFcLoekkzOGP6zCgLsTFQa4F+FsnQSGfVldqzDgJR72TCFmCMOdMMG3EeJFPhseHz58GJmZmXC5ejabEju5i4T70xTbjhbuRXCpbW3teoUB7/A0FuPqjQIYzTT1G/ENn4X2ypUr+PDDD5GVleXzCgPszBZCmWnNXXoOG7YeRV6VqelzhBAvk/yMwf/sVSdOnEBaWhoqKysRGRmJ0NBQ/pKO1VdmQSkxMtubnf8caQ7sg2ZntNtdcEvDoAtiJ5SzIu/cWZRpw6ExleDG5cu4kVMCiywIoQYl/+nlgc1Ygezrl3DhUjpuZRWhzqlAgF4DhZS/htuG8jtpOH8hDVdvZaO0zgG5JgA6lRg12Vdw5tgBHLhUCJejAbUIRWKkDhIaJxMv8mloS0pKUFZWxi3sPFHBwcH8pfframjbBfYBXdr9oT2KSzllqK6qRnlpIfJzbiL9agm0/YchTi+Bw1iMy0d3Yvexqygor0RFSR4ybmShQRuFhPAAyCUeVKRvxwcfH0VWWTUqyoqRdzcThUa2pGYkPMXXcfHCWVzMrIdMymyNBw/AmP4hkNJeL+JFPg8tq6KiAuXl5Q/tcbsSWjaj7M4ebv/UQ9wf2kNIM0Zg2pLnsWLJ05gyNAaNl7dhX1kinhoZgIrrJ7D/SBbCZr6ItSsXYvrYVAQar2DX6XokDE1GmLwI237/LoqHrcaX1y7HvGljkKStx42066iUxGLMlAkYG+vC9ep4fPFrX8SS8bEUWOJ1nR+L9lBGRga3fdtTzT3sowLbMTUSxkzEiORIaGQyaMIHYfqSsXCeP4dCax2KC4vRGDQWsyelIkSjhMoQh7HznkFy7R3crDTBVnIOh8qH4blnJyI+UAW5KhCJo6dgdLwe9XmZKLfxD0OID/VaaCdPnowxY8bwa93THNgHbcM+mgwqlRTi5lfNbGsqwuMRZi1HpcmCRosVopBohClae0eRLh6JhkZU1dnhLMlHeUQqkjVtek+FASFBOsic9TBa2GdIiG/1SminTp3KVRhgh8fd1S6wXs6Gx838Gpgks9+twuVsP5+cx8EMs8WQMsN2kUIBqcPevo6PxwWnk31Sj+crJvLk8Xlon3rqKbz00ksICwvjW7quJbA9nv/YCpPJ3qbCgBu2glsoDIhFjFYLg04NFN9Crqm1K3eXXUV6XSDigpRQJA5GcuEJnK9qvdxjKkVhWRVsijCEqPkemLmYm6+5aY0Qr/JpaNkelq0w0NPAtkxY3mM2XN+xAZ+cvIYqkxm1mUfw3t+OI3TuTMQpAtEvdSBCrBexaeMhZFWZUFd0CR+8+QmqBozD8DA9ZIFT8cKMKrz7q3/gTF49TPVFOLVzG45k2pA4chjCpMxDaPXQVOfgVnkDzA6vzgFLCMdnhzGye49TU1MRHh7Otzzcgw5j5GZB7VZg752svB4n3n4fOeF6VF08jQMnrqNOGYdZa3+I7700FiHsZMceGypun8an77+PT8/cgUkejbELX8E31sxCSriG+4RzWIpw/J+v42/bT6GgUYXEsYuw9gsvYu6IKCjYK3hqceGD3+N3/zqKiriX8a93vshsA8vYJ0SIVwjqhAHfVhggpG/w+TZtd7CfIlwPS6NLQu4jqJ5W4S6AkhljcqPhHm/DemCxOiHWDaGelvQpggltVWE6zMZSfs17dMEJCIwYyK8R4v8EE1pCSOcIcpuWEPJgFFpC/AyFlhA/Q6ElxM9QaAnxMxRaQvyMYL7yKbp9GMaqHH6tiUQqR0TCaAREDOFbCCGCOiJK5cmESsk3MMxmoNakRFj8OOjDUvnWrhGJJVx5EUL6CkGFVo0sJrSts0Kwz4wNbo2RfYptZot4oPYvhZ25NTBq+EMOY/TA2ViNSpsGkUFtShsQImA+C63RaIRarYZUyp5k+mgPOjWvqcIA+xQfvvnNvYh2FQaY59DghFv9kLN83E6U7vtv/MeVBdj4kyncNOeECJ3PdkSxFQZu3boFp7Nnp+o0VRgQ83UDOl64F8GltrVVJGKnj2HbCOlbfPa2vnHjBldhgA1uT0uDPAybVW52Rt89BCGC4tO+6ObNm9i8eTOuX7/Ot3hXc2A7PzujHVVZF7D304341783Yfuxa6i08xdx3LDWFeHqsc/x4fp/Y+OWPbiQVQELM+xuyDiMPemVbWZu9cBaU4ybl87hThWd+Et6j88HkGxPu3HjRq8Hlw0PO2F5VyZ7s+SdxadbP8fp28Wob6hDScZJ7Dmdx8+u6IGjrhAXD36GHUfSUVhdi7Ks89ixZTcuF9TCUn0JH246haqWSeFsqMhLx7ED51HaLviE+FavbPXdvXuXC+7Vq1f5lp7helg2tZ3uYRkeI24ePYF8+WAsWvMVfP1rX8KLi6YiVuFsGlm7LSi5fRHnrtQice5qfPnVr+ErX3wBY2V3cDK9AKLUWRhaeRznKpoe1GOtR2VxPhoMwzAovHM72wjxhl7bVZOdnY2CggJ+rfuah8RdCizLXowbuRL0HzUcA6INkEkUMMQMw9TRcZAzF3tsdSgqLEKjYQSmjklEoEoBXXgqpo8LR0l+BcziFMwf3YjDZ8qYh/bAUl+LkoJyhAwfjhB23xchvaTXQjtz5kxMnDiRX+ue5sB2q8KApQ710CNIp4a8TchkCnnTL8FuhbnkJg5v/yu+s+Y5rFy5klmexxd/+ynO3y2BwyVD//mTYT1yDEVOO+pr85FfGYERQwJ775dICKNX3m+zZs3iKgyEhITwLV3HBrar27DtSEQQeRxchfgOiUSQBCdi0rKv4mc//xnYumTs8os/vYt//3gJYoOUkCfMwSTPMZzKakBdznXUxIzDIH1nDvogxHt8HtrZs2dzFQYCAgL4lq7jAsv+1Z0etpk6DBHiGhRV1sPMTfXIYAJsrjNx27QiNdMLh0YjXCpGQP/BGDy4eRmEgXHBTfVpJZGYMV2NI7uu4u7NKiRNHoLmogKE9BafhZatizN37lwusIGBgXxr17UEtqffw0riMXliAK7t+hT7zmWhpqYct469hz98dKPps0AaiKT+/RFkPYX1HxxGZmk1aopv4dC/3sTms7kw2tknIUbo1JnQXtiAE/VDMSlFwd6SkF7ls9CyPeyLL74Ig8HAt3SPVwLLkSB6zpfwjTlBOPWXr2Lx0pfwmwMSLP/WCiQZ2PCJoUsci8UvPIfE4o/w/bXP4rmv/Br7zUkYkxoBjbypS5UFTsEzw0XQjZuGONppTB4DQZ0w0PbY4573sFRhgPRNvbIjqqt6HlhC+i5B9bQyZz4UCnHTNmaPA9tUYUAaMJR6WtKnCCa0NaU3YTFW8Gveow2KRUBoMr9GiP8TTGgJIZ0jyG1aQsiDUWgJ8TMUWkL8DIWWED9DoSXEz1BoCfEzgjq4oqEqk19rIpbIEZ4wBoFRI7hJxwkhAgttRxUG6kxKBMeMhDakewdISGQKSGU0ETnpOwQVWjWyoVbdU2HA4kFdA7vWiRNX73kpLpcHAZEPqzBAiP/xWWhramqg1Wohl7MzMD3avWf5NPNphYG2mBu4XE64PBLIZbSpT4TLZ+9OtsIAO/uiw9E0QWl39VqFAYcRRXfSkZbRdm5jQoTHZ6G9ffs2Pv74Y6Snp/tFhQGPtQbZV0/g2JUi0NTjRMgkP2NnL/OBEydOcBOUl5aWctPNxMTE8Jd0rL4yC0qJsUtDU7ZHfNj8x3a7C25pGHRB8XyLE7XZl3Boz+fYc+g0rufVQR0VB52jHKc/+Ts+PpSGjMwCVJhcUAVGIdwAVN29iMN7dmPv4ZNML1wKT0A0ogIVndnCJsQnfNbTNsvMzMSmTZuQlpbGt3jHowJ7Pw9MWUfx4Ue7cb3Sg4BALez5x/HBe3uQ55BDHxyGYIMOWkMwwkMM0ChEqL9zDFu3HcatKg90gQGQ1N/EZ3//J06XUl9MHh+fh5aVl5fHVRi4ePEi39Iz3JC4S4FlOEpxZtdJlOqHY97K1Vizdg1Wr3oWSRW7cShbgZGzFmPWxOEYOn4eVi6YjJRQIy4fvoS6oKGY9/xqrF27lllWY2bgDWw/U9KlhybEm3oltKzCwkKUlZXxa93Xsg3bxdR4arKQXq7G4FEj0D9SD7m0qcLA9FEKXL9WfN/deYwFyKhTo//gQUiJ0DHXl0ET0g/Tv/B9fGFcMA2PyWPTa6GdN28epk2bxq91DxuslgnLu8jTUIuqguN44z9fxqKnZ3OzRc6ZOx9ffvsyKuvrm3Y+t+FpNMIoUUGrUkHe5rekCB+IwTEaCi15bHoltGxg2elU9Xo939J13RoSt8X0lOrUhfjxb9/ChvXrsZ5dNmzAh59sw7tfGcl9UdSOTA6Z2wW7y3XPjmkRW4yAkMfGp6GVSCRYuHAh1q1bBxXTY3UXG1hudsbuBpYhjuiHJJEFJpEU2rBIREVFITIyAmGhQQjU8geAMI/hZh6IfSxxUDTiXZXIL65AnZU9xIO5mAlx6cE/47c7CmmiSPLY+Cy0CoWCCyzbw6rVar6161oC29OUKPvjmRl6XN31GbYfTENOXh7uXj6MTX9+AweKmDuXq6BSiGHMvoJLORUw2mMwdVoUCk7sxI5D55GVnY30o5vw+vpriEwKv79nJqSX+Ox7WqVSicmTJ3d6SNzR97RcVnswJG7/Pa0ImrghSNVX4sy29fjn5u04fdeMhLlrsGB4ELdjSiVnetILO/DRngyIw5IwYupkDFBX4ezOzfj3J3txuVSBWa/+CC+M0NM2LXlsBHXCAFUYIOTRemVHVFf1PLCE9F2C6mkl9jzI5XyFgR7sdGpmtTohD6QKA6RvEUxo6yoyYTNV8Wveow6IhC44gV8jxP8JJrSEkM4R5DYtIeTBKLSE+BkKLSF+hkJLiJ+h0BLiZwSz99jtcnAH5N9LLJHRROWEtCGogysaqzPbnfYmEsu4icqDokdCLO3cVKyE9HWCCu29FQYsFrbCgAIBEUOhDU7kW7tGKldDruz+ebyECI2gQqsR5TChbX/+jMXiQX0j+1MnzqvxtDn2kXlVDqcH+ojmCgMOVOfmwKiJQFRIABS0NU/8lKBC69sKA3U49ufXkZ6yBC/OGoWwez4cCPEXgu9vOl1hgOtkW1u7XGGAED/h929rNqs9OVGeEH/j1eExW03g7NmzKC8v51s6FhAQgIkTJyIxsXXn0oOGxw/DZfWBgb33JHh+eBw3CYOlVci4kYkqjwEDpy7Boqf6Qcvdxg1TRTbSThzF+dulsEqDkDJmBmZPTEWIRgaRuwrH398H+fTBKDt6BDdLLNAmjMBTMyYhAXk4c/Qk0vMboIwagacXTcfAMC2kzCjc5ahH5sk9OHD+LmrdeiSNnorpU0YgRivlHpWQrvDqdDNs/vPz83Hs2DGu+FZWVtZ9CxvopKQkDBkypN3cUV0tC/LwwDZpP92MFXnnjuDkFSY48kjmOcQhXF6Nc7sPoTFpGoaGSmGtvIujO7fgeK4E8QNSEK2zIfPMSdzxRGJAXAiUokrs+PUfcNQoRUhMP8QHS1GZcRlX0q4jp7oeFuax4qN0aLh5DCfKAjF6YDTUUjfyDr+Ft3eXInzIUMQHOFFw4xoKG7WIT4qCpvOfUYRwvDo8ZueDmjlzJhYtWoSQkBC+tRUbUnY6Vfby4OBgvrXr2KFB96ZTtcIdMhSz5szDggWLsXT5GiwbUIPDJ3OY+zOhMCMN1/OUGP/sKixfshiLlz2PtQsTkHPoFG5VmbiJNDywQJ3yNBbOm48FS5/Ds7OGwl18G6WeBMxctBCLlizHS8+PgfVyOnJNVjgbr+OzDTcQu3gdXli2BEufXYlFE2JgLbiCW0XWpqdFSBd4fZtWp9Nhzpw5WLZsGVd4q5lMJuNmZ1yyZAkMBgPf2nVsTru/DatH4tAhSIoJglIqgVQdguRBsbCUVsJmrUdZeTWcEWMwcUAYNHIpZCoDYsfOwHBPPu5UNcLJPKZEEYLU4ckIVssglWsRFReLhEHJiItLQXyginmdKgQNHIQ4Sw3KHU7Y88/hkmcM5k1MgEHZdJ/JKfHQK+woK6vv3ssgTzSf7Ihie9S5c+di5cqVXGFp1tKlS7FixQou1N3FZbXbgWVJIGfCKG5z2JVYqoDEbYfHboPVZgMCgxDQZsgqUoYhIsCK+noHN2+VSCRlhvCtt5dI5VBp9VAqmPvh25g0Q+lhAsv0y+7KEtw+/xZemDwGo0ePZpYxmLD0W/jzrgyYrMzjEdJFPtt7zM57PH/+fG7e41WrVnH/stOqdlf3h8SdJGV6QWY0ALMZlra75pwNMJpkUGvYsPNt93nwd74iXQCSF/8Wh0+fwqlTTcvpcxdwfuvrWDct1v9335Ne59P3jFgs5obEbGjZagPdxWaIm53RV4FliJhha1hQAMSFF3G11AwH84Bupx31t0/iQmMkUkLVkHbjtyVLmYBh1Wm4Uu+BRK5gPrjkkIrccDNjfA/Nnky6QfAf9GxOuW1YX0+nKtEz26YjkRRQhM8/2IIj5y/j0qldePf909BMnoKhIXp05wsasW4clj9jx7a/rMfBM1dw7coFHNu5FdsPnEFegw8/hUifJejQendILEVgbD/EButaq+Ax27byoAQM6hfE/CJEUEcPwTPPvYhJ+lzsfO8v+NtHZyEZvxqvLh6OYPa7GZEKMYMHI6LNIZBiZQAiomMR2bY6vEiL2EH9EKaQMaMNBVKf/SFeGWvFyc1/xetvbcCJUgUSho5AQoDgPzOJAAn22OOWIXG3e1iqMED6JkF+1PfakJgQPySonlZkzYNMJmoaDXthSGyzu6AMogoDpG8RTGgbqvNgM9fxa96j0oVCY4jm1wjxf4IJLSGkc2j3JSF+hkJLiJ+h0BLiZyi0hPgZCi0hfqZP7T3u6CsjsVgCqVwFkZimdiF9Q58K7fWjb0Ihb/9yZIogBMWOhi4kiSsxQoi/61OhvXn8TcRHt74c9mSDBhM7TXkwdGEDIVe1zqTRFeqASEikCn6NkMerz4W2X1z783ZdLqDRAljtfMPDsL+JNr8O9keL1Y344cu54HYLcyeWkiu4WB2DqcPCunUGraW6GEUV9dDEDkSUls7BfdIJdkcU+1mSnZ3Nr3UOO4uMTKZst7CzZQQFKhAZzi7KBy4RzBLOXCc8tO0ih1zew5B4XKi/+gn+tvNuNw+n9sBaW4bcrEyUm/km8kQTbGidTic2b96Mu3fv8i3dx1YpYM+XZV8su3jMDrgb7BAzHwzsOhdLtoN1sz81X4u5BfMp0LaK3+Mhgj5mAMZPfQr9Ax/7kyECwL47BYntaa9cuYKPPvoId+7c4Vt7zmG0oexIDoo+z4S1sqnrcjOB5Wp3tY6MBUWi1CDAEAgN7UcjDMFu09rtdm72RnayteHDh3MzOw4cOJC/tGO3TryJ/v00/Nr9bDUWlB/NQ/WVYrhsbhhSgxG1IBXyMO0DAutGSbkVEQOebdmmdTUW4uSnW3D4WgGMCEDS6Gl4ZvYU9GeG000sKLi4D9v3nUVWlRiRw6ZhhuEE/pKxABt/Mg5Vd67j2s08IEiMjBPnkG9SIGHCAiyfMwCOm/vx6b6LyDXKkcy0rVw2CVFyD2qz03H5TjFCxi7A8FAzbu05hPKIcLhzr+H0hZuodAdixOxVeOHpVDz41ZO+QrA9bTOHw4Fr165hy5YtyMjI4Fu7zlJuQum+TFSnFcHJDI/FLqAhq4bpce/CXFTPX+tRGnH+/d/hs5wAjJq9GAtnMB8iWcexfecJ5POzoTZc341/f3IB1tgJWLr8aQxT38bWndfRNC25C6bKHJzYvh1HbxqRMOVpPD0uDIX7P8LG997E+2fMSJqyCEtn9Yfp9L/w3t5cOJlbWWtLkZN5F+WN7CeLA5WZ57H9/U04ZwzBpAUrsHBcMK5/+Cd8cpU2ep8Egg8ti+112eB+/PHHuH37Nt/6YG7mj13qgESrgcguge1uPQoP3UF9VjVcJjeUHiVUUg2sZjccdW6UnSyB67YN0ioFpJ6HzMvsqka5dQCe/cpzmD97OmbOXYxnJg+Eov4WssuZ8bW7GmlHrwKpM7F04XxMZ7ZDZy14AYtHtq2m4IA0OBpDJ87HnGnTMHPRGqwYBZw5X48hM2Zi9vQpmD5nCVbMT0HZ8XMo6XDvlQnuqPGYN3MWpk2ZglkLV+P5cQ4cO5PljbkDiMD5RWhZbI9rNBphYycUfwS2pq3DYUFjdQUqCwtQmJmLfGapr6+HRC6G0+WCSCyC0+OEyWJCeUkp6ipqmevXwWOy8PfSAUkUnvnqK5gcqYdCKoFEpoYhMIDZ1nTCbGXiYi/C3Qo9UgYmICpICbFIAqU2FMnJEWj5llekgCEkErFxwcwHhwRSpQEpqZEITB2FYTEhzH2JIVFoEdw/CSG1ZajqcNgegPjBKYgK00PGvA6pMgAJydGwl1WhM99sEf/mF6Fl9+LGx8fjhRdewNChQ/nWB5NIxNDo1FDrVQhPiEbK8AGIio+EVMO8XJkHNo+V+VkKTZAaSp0MAaF6RMSFQx8RBLHyYYc7iplcHsefv7Uaz0wdhxFDh2HGC9/F5rSGpovNjTBL1dAplFy1vGbs/M+tqyJuvW3tXLlcBYVKDZmotVEkkTO9voPplzsihpQJfNs922Lm+hK3U6j70ogXCT607Bs8ISEBL730EsaNG8etP4qL6UlNjfUwM70o1ApIokMhCdLALrLD5DFBESyHIkgOt9wJm8gKsYbpNZnLIXPD5XhIUSzzRfzhe39Fxbiv4i1mOzbt+jUc/eh1rBrVVPoECgXkTgtsDlvTTJI8DzcPLCHeIejQsgGNi4vD6tWrMXbsWL710djbyeQyZhjMVq2rY8JWB4erEU6lCzKDDIPmTELixCFQh6phlzmY8LqYcIvAbOoC0gcHzFV+E9kBC/HK8glIDGDuv7EapSXFqKhndxcxVJHopzciK6cQFUYb3G4XbKZq5OZWPqDHJKTrBBva5iHxmjVruB62S5jbiqVSyFUqSFRyZvwphlspglXiRKW9Hs7oIHjCdHCpmZfPLG6FB24xEzylBGL1g+sNScIGYZg8HZ9vP4QTJ4/h0J5dOHT8MorMgJPZ5vaIIzF2en80Xj2CHTv34/jx4zi4ewu2X6mBhI6LIF7i1aLS3sSGNjQ0tEuBrcy/gOBAOVxww+Qwc8cdS9zM0BdSmBrMkDHbjbrQEEREhDMhYobQdhN0MaFQGbTQBunhcFqZbUK2p21OmAcNjU5oQwZCptQx4Y9EckQjrp08jvM38mHRJGHi9MlIjdTBEJaAWGbIrY7shwS1CbcvncLZ9GyY9COwdOkwZuQch9EDguG0NMIGFaJTUhCiaHocj6UGlYjA0JRIaBXssdMeZpjeCGOdHAljU6G3NsLqkSMsoT8iNG6Ya+ogZh6nX0Qg8znTdB+uxipUieIwdkhEa/U+0if1qRMGmg+ucDMdqIXZPvU43JC4JFAwf2z1VqbDZX5SsAdSsCU+ALe5AdCr4GTCCpUMdpsZIjFzm5Zfyf0HVxDyuAl6m7a7PB4R02sqmB5XDZdIBbtbDpnGALFCDSeTR5fbDSezuFQaZltXDIdYCatTBJdUBbeIGU4TImB9qqe9cexNBAZImaCKYZawBbGYbVsmwGI3u4i5n1ki/l/2/AD2R5eI+RUwi0fE9LJuB2Se5u+CPWhsdCFuWA9OzSPEy/pUaGvLmo+WcsElbuR/ZqLLZpIdD9/7Su9pYg/KEEHGhLv9zihdUDw3ZQ0hQtCnQtvKxSSQDS370rjE8j8/AncVBXN9NbdKiBD1zdCyr4g9oKE5rMyWO9uLss3Nf7O4i/l/uZ64ZaH9r0S4+mZo2W9t+INw2T3J3MJksXlpCS3/ysXMv+yBhuy6mLlcTJklAtZ3e1r2ECQ2oGxQmdC62ODyFzUf89ScTfZf9qpseFltj+klRGgEE1r27B2pVAqJhLo5Qh6G6X+EYf/+/SgqKuLXCCEPIpye1lwHF3tkUhvsziH28EGpnPbmEtJMMKEtuLkP1rpMZnjMNzA8Hil0oYMQHDsaUvbwQ0KIsEKr8mRC1ea4BnaSinqTHEpDMlQB0Xxr1yg1gVDpwvk1QvyfoEKrFedCrWrddcs+Mza4DRb2KXZil27bl8Le1u6GJnQYIpOncg1VN88gW9oPg/tFQitzo+DkdpQkLcWEKKCxugjZd0sRMGwc4jW0+5gIl892ROXl5cFs7trsgBKJDFKpomWRyRTQau+d9b/jJZRdguStS7Acem3bPdEelFzci0Pp+ai3NYW7oTgLJdzRji40lGXizP6DuNPQJviECJDPQnv48GHuJHCr9SHTt3RS2+oAHS0c7svXtq2iR3zfKkbS0+swM67lHgjxCz57x5aUlOCzzz7DsWPHuJkUfYXNKjcFU/MRE12gDAyHgYrhET/j026mvLycm2T8wIEDfIt39SSw7JD48j9+hPU3Xfw6w16P3DOf4Y8/+Cpe+dLX8T//2Is7FY3du3tCfMTnY8OqqiquHo+3g9uzwLI8qMlKR2598zasHRW5t3D5RjVSF7+Cr708B4GZe7F572WUGNsEm5DHrFc26NhJwjdu3Oi14HJZZXPk1S5QBE1UEiYueA5zJ47GqInzse75MWi4fQPZ5bVceQ5ChKDX9sKwxxaz8xH3VEsP6/WdvDJodKGIjAqAQirmJv8OHDoCKdZqlDUYwe9wJuSx65XQqlQqrFu3DvPmzeNbuqclsF7tYdu6Z4+zVA293AWr082VwyRECHweWr1ej1WrVmH+/Pl8S/f4PrAeeDxMONumk53G1CmDQiLhzrMlRAh8GtqgoCCuruyCBQv4lu7xfWBZTpjry5GfXYx6iwNOmwll6WnIVQYiSqdrLaBFyGPms9CyE40vW7YMc+fO5QpDd1fvBJYlgcNYhYwzn2PH5zvx+bYtWL8jA4YhQ5EcaWhXUIuQx8lnoZ01axa3sNuz3eXdwIoQnDoOo5LCoeE+Q8SImbAAYyLYX4EY6qAETHv2RSydmgRn8R1cu1sB7fCFeG7OKITrHlZJj5DeJagTBgJkRdCom44X7nlgPWgw2eFUDuZPGCCkb/D5jqju6HlgCem7BNXTOk05kDIbj9wT8kJgHc62p+YR0jcIJrSWhko47c1VAbxHrtRDoQni1wjxf4IJLSGkcwS5TUsIeTAKLSF+hkJLiJ+h0BLiZyi0hPgZQX/lIxKJoFAHQqbU8y2EEEEdXGE3tq8w4HZLoQ7qz1UYkKsMfCshTzZBhbajCgNGkwwyXQKUugi+tWtUulBoDN2rTkCIEAkqtFpxXrsKAyybHWi0sk+xE+fGcQcst7Iyt1OFDG2pMFB2+TBuy1IxKjUGevnjOdfOZalB9pVTOHk5H/LkSZgxeSRidL2/a8GatR+f5vfHqlmJtGPDzwjq/0sikUIqlbdbNGo5QoIevQSxi6H9otW0fXkeVFw7htO3itHAV4nvEY8bDmsjTI1dmNPZY0NF1kUc2HsSRW4tAnRqyB5TBWtr7lF8cryg6Thv4lf84kO2UxUGuDnj2rY+qsJAz3isNci8sBfbT+RwRec7xWVCeXEh6iVDsOyl1VgwaQDCqG4Q6aKW97y/ajmNr7e7DJcVtWW5yCqqv/+EJHcxzuw8gzyjrf3Tcju5M48kzHZ2sF4OCfOp8pg6WuLH/Dq0LYG9LzWd43GbkPbJ7/Ctl5Zj8bJV+OYv38Ox2zVNnTbLXIjTm/+Ab659FvMXL8e6/3gdR/NtMFfnYv1r6/D932/A1re/i5Wv/hrbLlW2Pg1XEc7uPYtsk7WlzVFfiENv/gDf/cXfsHn9z7Bm+Tfx9t5rqHfbUXRpG/74gy9i2eLFeP6LP8K/jheCG8F77Ci7dQpb3v0AaXWtL9JdsA+/f+dz3C5rYD4UqrD7f36OHRkX8e//eRXPP7sUq7/5S2w5kwcLf33mhSDn5Hr89OursHjJKrz6q824ZaSBsb/y29Byc5X3aMJyJ3I+fQ2/2mXHzK/9Gv/3u+9jbmgxdq1/H4eyTMzlZtz4/EPsytVg7rd+i7ff+CVeHlaCt157F9nqGCz7/h/w4/+3FPPW/ARv/vJrmDs0qPWX6XHCYrbA0WYfn1QXiclrf4SffHM1Fj/7bbz+1v9gzbT+sF3ajDfWn4ZkzEv49Z9fx0/XDMT1t7+PN05XM7fywG42oqq8Eo1tZkv32OpQXFYDi539BThQnXsGm/66FY5pX8dv/vArrB0JnN/+IY5nNRU/q0/7DO9uvYHAmV/DH//yC/y/0TXYuPEs8wqJP/LL0LI59bDv1550FqazeP/fJqz42Q+waHwqklJGYf5zz+GpODfSj6WhwlmH/AInYoeNwqjBSYiLG4hpa3+M7y6Ogcgpgy4oDMEGHTT6EISHBnLzTjnsVlgtFlisdjhdTtitTetWqw1OjwSqgGAEB+qh1QUhPCIEekkBjh7IRcTU5Xh+8RQM7JeMQdPW4LXvjEX6u1txp7NlDcRmRMz5Nr4wfQiSkgZj+pynMTzehaysEmYkUoELJ7MQOG4hnp0zCSkJyRj59Kv43rJUtC0ESvyH34WWDaw3tmGduem4Hj4HTycquW1LduNSEhiDfnHR0FqKUWoOw7BRAcjavxn/eO9jHE7LRFmNGCOZ4ecQHX8nbVhu78Hvv74MU6dMwZTp38Sm05vw4+XzuPUZTy/HH04Y+Wu2clcWIlcUiQH9YhGiknBfaonEEugGz8V40XXcYjvbThCJmfsYGgYpNzmzCAqNBnq1Bi6TBU5rKbNtbUBcbDiCdOxjMH/EUgRHBtO0sH7Kr0LbElh26SmLGTadCmp+lSOSQi6XMb8UOxwOMWJnfRmvffM5DEAmdv7lNXznR7/GB0ezYWrZ6G2lGrQIP/nHXlxMS0Paub9j3VPr8KfdR7n1s8d34bUZAfw127DbYZdKIGOWtr2eSKKDWmWFxcK80OYdVV36kOKiybwO5vZ2G1wSGZQSKfWsfYTfhJbLao+2YdsTBUcguLoQhfY2aXA0ot7YAIdYB63CjvpaC9QJE/D8N3+Gv67fhDdeHYy0v/wfjta03obdbO1upy/S6hHgNKPe1Ahbm9flMuaipDEEoQYmaFIpxCI7bG2KCbkcDmb47e7c4ypUUHrMaLQy29htH8Ph7OlghTwmfhFaLrDsX158l0lixmK68hI+O5qB8gZmG9RhQUVmOq5mlUMakYxISTnSjhzA8Yu3UdnogMsjgjZ2MJICjKgzMU9EJOZ+eQ6TEQ0OtqRI2ycng1qrhvwRtUREgYkYGmTC7WvpuFVUB5vTBWt9Ma7s24vCmCkYHCCBmhnmKsR1yLpbBJPdAauxDLduZqGy3sx9YDySMhLJoQ7k3r2DnDLmA8npQGNVDtKuFrfuJSd+RfChbQlsm17CKxQDsPjliag78BE2btyADcyyaccZVKqTMWFCKgIUOhjENbjKDG0/3MBcziybNm1HdcpCTIhkfm1yDQyhIUDOQWz65ACuZFeByW4TcTQmzZ+Mflrlw3/BskiMnT0BocYM7NuykXseGzduws4bOjyzejqixGLowuOQkhSGgsMbsX7TZmz5bBfO5NTD6WaG1A//TGgiCsbQp0YioPoadn+4nrn/D7Fl2x5crPLgMR3JSXpI8jMG//NjVV+ZxWx3GSGXtb7NexpYu90FtzQMuqB4bt3j9kAdkYiEcD0UEjE0MYOQYrCjsqwMNY0eBCeNwcw50zEkWg2RSIWwuGgYJHbUlJehusEGefhwLHh+PgYxw1YRs52o1umhctejsg4IiopFdJiuqXyIWI+Y/jEwKJjrcY/cysNsN2uDIhEfFwyFSARFcCz6RergNFagjLkjlyoGk5e+gDmDDVzgxcyHQ1BoGDSuOpRXGuHRJmDc5HFIjk9E/4QIaJVSeFxShA0Yghh186MxPb9EhaDwWMSGaaEKiUFcsALmmnJU1NmgiBiOefPGICwoDoMSA+97jkTYBHXCAFUYIOTRBDk85vY3eXGnEyF9icBOgs+BhNlQ455Qj5+VB06nm9kmHE49LelTBBNam5nZnnM2HXbnTVK5mqsyQEhfIZjQEkI6R5DbtISQB6PQEuJnKLSE+BkKLSF+hkJLiJ8RzN7jxrpi2K0N/FoTkUgMtS4UcnUg30IIEdTBFc6GTEilfAPD6ZJAoU9CSNwYKDTBfCshTzZBhfbeCgN2O1thQAqRKgZKTQjf2jXqgEjoghP4NUL8n6BCq5OwFQZaN7PZZ+ZwAGY7exByJza/uTMMmrC3tVjdUAY1VxjoHe7S89hyGZg2aTgiA+W4ve0tZA3/Ohb2o90HxDt89k7KyMhAQ0P7bdRHEYulkEhkLYtUKoNKJUNQgJxZ2H8fvASwi07eshj0MmjafAD0Fk/NXZy8lIkaEzsJqghShRqKTp34Skjn+OxdfejQIezduxdmc88n6mya8Yj9t+OFGypw0zC0v+TxTwQuQvy0FZgc9difCOlDfBbauro67NixA7t27WK2Tb1RPKdj3Cm37F+CGOTfT6YJgFrGrxDiBT4dP7LD461bt+LTTz/lW7yrS+fduqtx7O23sWX/Nvzzt9/Gs7OnYvaSL+H1/Tkw1mVh15+/geVPz8bTz30Lb+66iqqWOYdtyD/2L/zwpYWYOmUGnvvGH3GooHnufgeqsk/gndfW4JlZc7DkSz/Hlov5MLXc1olTv1mD1y/xDW4rym8dxBv/8SLmzZyG2Uu/iF9tPIWiui4U8SJPPJ9v9FmtVmzZsoVbXC5uDOsV7D11bcJyN6xMOHduOADLqHV4e+s2vP31IUj79Xfxy7c/wBXDi/jT+g34/Uv9UXBsOw5cKGEew4WyI2/hF+tvof8X/ojPdm7CdyfU4YP/egPn6z2wFN/EwY8/xu2g5fjDho1489tjUJ5+BVlFtS2fI9b6Khi5gYYLtXmXmcffivqRX8ebG7fgvZ8uhOfMp9h65iaqKLekk3plTw0bVja07FDZG7jRcJcC28yN+Nkv4tnJIxBhCEHyzK/glWlWpBcPxitrJyEhPBLDp8/BpH4G1OXnodaUgR2fF2Poyi9g+ZRUhAZFYdyK7+KLQzOw+3gBSguzUNSYiKWrl2BoVDhihy7Al56fjdQoHbdV3Y7HDbdMh+SpL+GV1ZORxFw/ftQiLJsaAFN1LYyNAh3fE8HpldCyDAYDAgN7fmRTj7ZhJXpEhGkglzVFSiSSIrZ/PCIHDEJE80zeag10SjnEDivMFbnIdWmgdVQi784t3Lx5Exl38mBXq1GSm4M6Uz1s6iT0C2/9Nar0Wqjk90/oBpEMwTGDMOmpgRAVZuPu7QzcunUbxZX1MNuYQLsptKRzeiW0oaGhWLduHZ566im+pXtczPvaqxOWM4tEooBY3PbX0DSfsYd5ELfdBlvNdWz7x//hVz//GdiJK3/+q//FP8+7ERsm5Sb8FsmVkDfd8BHcsNTk4ez2f+GNP/4Bv/n1r/DLn/0Cb356FgW0TUu6wOehjYyMxOrVqzF1as8OcOA61+72sN0k0gchtP8z+MHv38GHWz7BJ580LVvWv4P/eW4IVAo5ROYaGFsmPGY+WJzOjntNVyOKMk5gz5k6jHjpP/Gndz/A5i2b8YevzUNKMO1eJp3n09DGxMTg+eef73EP26MhcQ+IQwZgbHAtLl++hqzyBq4SnqW+FJnp6cg3qxAUFA6t/TbOpxfCaLXDUluIq9eyUFXfWhm2mcftgM1qhihoIEb0j4ZebEF51lVcuVOIGrP3dtCRvs9noY2Li8OKFSswefJkSNueBdBFLYFll94mjcSEp8choOoadm34B95+6228t2ErjlzOQ71LjpD4QRg+WI/bO97HO2+/g39u2oGzBXVwoqkCXlsiiRqh0SmIcV3Bh++8hb/94wN8djANlVYPHEzv7HRScEnn+KzCQEhICPr37w+lss0ZAA/xwAoD3dpL3KR9hQExpAotwuMTEBWoBfcwIhHEcjUCo5KQHKHmgyaCVK5FSHQMIkMN0AXHIjFCy9yZBVa3BPrQBAyZMBmDI9WQq7QIjYxGoNwFu0sMbVgyxk4aj8H9U9A/PhQquQRSpQZh/QYiVi+DSheM8BAlnHYnxMogxA8Zg0ljhyA+Lh5xEYFQy32+tUL6AEGdMNC2wgCX1R4Elr0hVRggfZEgP9p7HlhC+i5B9bTWumyIxd6rMOByexAQQRUGSN8imNA67Y1wOb3/faVEpoBUpuLXCPF/ggktIaRzaHclIX6GQkuIn6HQEuJnKLSE+BkKLSF+RjB7jxuq87jC0m2JxGJoAyKh0IbyLYQQQR1c4WrMhKxthQGnBFJNAkLix0CpDeNbCXmyCSq091YYYCcqZysMuGXhkKu6N+uFNigWAaHJ/Boh/k9QodVJ8ttVGGA5nB5YuZPMO7H53WbiOPZVmS1uyAN7t8IAIb4mqNC2PcunLQ93IPJ9sy61w8WVCXgrD4wNDrhUPj7Lx+2AudEKt0QFrbr75w0T0ll+sfdYyBUGPHXZOL5vO/aey0fLdMeE+JDff+XDZrUnJ8r3mMsGY10t6ky2x/YUyJPFL4bHD8Jl9YGBveckeHcVDv7fByhOioTpynHsOXQZ9epkPPPV/8ZXmYuPvfc63t+bAZNuIBa9/P+wdtFYRCjqcfT1d5A/eCA8aQfx6b7zKJNEY9bq/8R/vjIerltH8fZ/fxsbr1ngESkQMfUV/OoHX8L0QYFcX0+IL/htT/vwwHbEw3SKRTj02TnIpn8bmw8fxUf/MwM5f/4efv7Wh8hO/Bre37kL7313PGrP78aB80VwMLdxO4tx6IPPUTXiy/jgwBnsfeNlyI7+Hu8cMyJsyGz8z7ub8esffQc/ev1THPvXDzCDAkt8zC9Dy03M2J0hMZOmxNnPYeHYATAotYiesBYvzQTu1gzHSytHISIgECkTpmF8vyCYigtQx00m50T4jLVYO3UIgpUyhKTOwYuLEpB5LYu2Yclj4VehZTPaMmF5VwPLEusQFqJuV2EgOikO4Sn9Edb8m1BpoFM0VRiwcQ0GxMYHQa5ougJ7lJYmMAgSk4npiQnpfX4VWnYOcG9OWM5GVyJhAtquwkDTnmr2a6YHPwxbheBxzOlKiB+FlsuqFwPrVeyHSdM/hPicX4SWzapgC0dLpZC47Gior4fRTr0v8T3Bh9bbRbe8TaQJRXykGpXnP8Sf3/4Ul3Kq0aa0DyFe57MKA13VUYUBbn9TD3rY9hUGJFAZQhGTEIdwvRpS9mFEIsh0TFtcIuJClPxXNcz19MGIiotFeFAA9Oxt4uOZ26ggZa8gEkOmDkJUbALiwnUQS5QICA5FaHAAAoIiEB8XhUAts53M3Rch3ifYgyu4wHZ3LzGHKgyQvkmQHULPA0tI3yWonraxJgtiZsjqrSfkcXtgiKIKA6RvEUxo3S4HEzK2e/UukVjCbHdS0WbSdwgmtISQzqGdnIT4GQotIX6GQkuIn6HQEuJnKLSE+BnB7D2uq8iEzVTFrzURiaXQB8dCqYvgWwghgjq4wmPOhLzNV6p2hxgiRSxCE8ZCpY/kWwl5sgkqtPdWGHA62QoDEjhEwZAp9Xxr1+iCExAYMZBfI8T/CSq0OkkBNOr2m9lOV/cqDLAaG92QGobQYYykT/HZjqi0tDTU1bWvgvco7LQvYvawwzaLXCaFTs0ukocuanZRydosUigUTSfbeZPbVo/yKiu/Rkjv81loDx8+jE8//RQmk4lv6b5HVRjgzo/npkZsf4kvKgyYLr+Hn75zBhRb8rj4LLQ2mw27du3C5s2bYTab+VbvazmNr5M8LiccdhusViusNjs3/G7GnrDgdDq4xW5jLrfaYHe4uAnlWC67FWZTHWrqGmBhLnO0uS0hvcVnoWW5mG1MNrjvv/++T4LbEthOZsdlq8KV3X/DD7+4AnNmzcHSF7+J//vsKqpsbF9tQ/6lg/j3//4Kf3v/D/jGqkWYu3ApvvSLD3CxoA5OjwVHfrEM8//jQ1zc/hrmLX4Jv92eyz0HQnqTT0Pb7MCBA9i4cSPq6+v5lp5jO7kunSjPhC7nwPt470gtxr36F+w+sg/rf7YQ9v3/izf25sLG3o+nAbm3b6EUo/CDv2/DnvW/xtM4gw07LqG0QYo5v9qLI2+uxfgVf8TRAx/jp8v7ofNFTAjxjl4JLYsN7vHjx/m17mOzxQW2i3NHeUx3cOScBSMWrsC88YnQKzQIGzIfX/naLFTv2o3b3MzkEoSljsH0p+cgJVQLbdQorHxpDiS3ryO33kS9KhGEXgttXFwcoqOj+bXuYTPa3QnLPdUlKFZEITkyGBpuhjaGSAxV7FgMluUit5a9QynkCiWU6tY9WPKEAUhy1KCc2Yal0BIh6JXQJiYmYu3atRg9ejTf0j09qjDgdsEtEXHT2bTbqSyWQiJxwdWuIHUbYhnkEjcczOPSdAFECHwe2pSUFKxZswYjR47kW7qHy2p3A8sQGUIRaqtGaZ0RFvZ+OB7YK24j3xqFqED2V+Fmsu1sF2BXXTnKPBoYpNLWXxZzcctdENLLfBra/v3744UXXsCoUaP4lq5j48Nuw3a76BZPFJCCCYkOpJ84hgt3ymFxOFBfeAW7PzkE2/AZGKhhr2VHZd4tpJ1LR7HRAouxEOd2HUVZZD8k6tTcvMcilQaSykIUNjIB58oeENK7fHYY4yeffIKEhASMGDECMtmjJ1a7d97jZt3Z6dTk3nmPPbCUpmPfzgO4lFUBs8sNsVgOXdQILHrhWYyOAvLO78aH6z9HXewAqIxVMFpscMgiMPHZVVgyOgEamQiW8pN44yfvICtgAMZNW4oXFg6Frlc2Mghp4rPQ1tTUQKvVQi6X8y0P11Fouc612z1sR5OVu9BYWYTcvCJUmWwQKwMR3a8/EsM1zJDDxoR2P/YcvoXIZxYj1loFk0MCbXg8UhIjoFdIuW1hj8uMktvXkF3lRkB0fwxMCoG83UYyIb4lqBMGHm+FgabQ7j2ei8Ff+CaeCqXukwiTIN+ZPQ8sIX2XoHrahqqs1oP8vfCs2LLQQdEjqKclfYpgQksI6RzqTgjxMxRaQvwMhZYQP0OhJcTPUGgJ8TMUWkL8jGC+8qkpvQmLsYJfayKWSGEITYQqIIZvIYQI6uAKkfWeCgN2MVzSSIQljIPaQMElhCWo0HZUYaDBJIbVHQCpnDt3rsv0ockIjh7KrxHi/wQVWr2UrTDQepYP+8xcbg/sLvbcvE5ModamwgB7W1OjCxI9VRggfYvPdkSdP3+eOz2vK0QicbuFrTggk0qgUciYRfzQRcEuzNi6eVEqpMy/dM4c6Xt8FtpDhw5xE5V3tTRId3D9K1dhgJC+z2ehZadiYadNXb9+PWpra/lW72s5je+R3LCZGmC2mGGqq0ZFWRnKKqpQb3bwJxR54LRb0dhgRGNjA2oqK1FrssLJDM+dVhNqqypQVlqGiqpamKyuNicheeByWNFQW4Xy5vtstMEljK0O0gf5bJv2l7/8JS5evMj9PH36dLzyyiswGAzcekfuPQn+Udgn/fDZGe89Cb4Ox954BzcC9HDm3sHFq9molxgwdPZL+Ora2YjTOJB3/hD27TkLW3QQ8k7fQtDcl7F6VhyKj36CbYcu4E5ZIzQhyRj3zPNYtXgsojVSuGw1uHt+P7Z/th9pOVWwK8MwaPIirHluDgZGaCGhETrxsl45uOLYsWNchYGqqvaV3rvr0YF9AHcZLp0tRNicb+Gdjz7Fht+8BEPaP/DugSI4uCtYUFKQg2r5ELz6x7/gRy8MQ+OJD/DhFQ+mf/1P+GT7FrzxH3OAs+/iH3uzYfHYUZVxFgcOXYNmxrfx5oaP8K/ffRn9S/fjwxN3YeTKjRDiXb12RBQb3DNnzvBr3dftwHIU6D9jCWaMSIROoUBgyiysXTMWpYeOo4S/L33cAIyb8hRSQzWQmm7j6CU3JixehpnDo6GWqRExdA5Wr52KhiMHcaehFrl5hbAHjsWCp0ciIkCL4MSJeHHdfMSxIwaarZH4QK+FNjk5mZu0vCd6FliWAmqtDJLmMatIBE3KIETX5aOE25Elh0YTAH1A02R0nupSFKuikRweAFXzbcRSqKOGIVlWgIIyEzdjozgkFuFtvl9WDlyILy8YhkC1lG8hxHt6JbSpqalchYGhQ3t2kEPPAtsxkVgGqcgFZ0c7s5gH84jZOrftqxI0fSXlAbs7gPtzXyFc9usq2pglvuHz0A4aNIirMDB48GC+pevYjHZ//uO2nHDYXMyolb8TJnTWsgJUKMMQ0kGnKAqKQISlDAU1Rlibb+N2wlKegQJ7NKLDNNApFXDXlKCSK+DVxFF8BYfTCmGibVriAz4NLRvUF198EUOGDOFbuo6Nivd6WBMyjh/CmZsFMNrtMDLh+vzjU5BOmIj4DnZai/QD8NQAJ87tO4DTGeWwOO2oyjqL7Z+cgGjMDKQGBCI+JhLyqjQcOX0bNY0WGEszsH/LJzidU8PV/yHE23z2lc+2bduQlJTE9bRS6aO37R70lY/3KgzU4dif/xf7GtTQuBpRXlwJk0eGkP7TsOrl5RgdxlYYuHc2Rg9slbdwaMcuHE/PRpXZAakqBPHDpmP58jkYECKH01SKqyf3YM+RKyisc0Cs1CEiaSTmLVmA0fEGSHttrwF5UvgstEajEWq1ulOBZXUU2pYDJ7r1DDsK7eu4Ej8TswZFQmQxwyVRIjAiDtHsnmLu4It61BmtUIVGQt9ytpEb1toKlJRXot7ihEShR2hUNCIMSn471w27uR6VpWWoZh6PSTUMYRGIDNJBRl/SEh8Q1AkDvq0w0BTa9JQleHHWKIQpKVDEPwly8MZ+++Lh/uJWCSFtCKanLbp9GMaqHH7Ne9hzacMTJzA/1eP0O3/D9aR5WPHUMIQoqKcl/kkwoSWEdA7t2yTEz1BoCfEzFFpC/AyFlhA/Q6ElxM9QaAnxM4L5yqeqMB1mYym/1kQsliIwoj80gfF8CyFEUIcxSuztKwzYbGLYRaEITxgPTRAFlxCWoEJ7b4UBdu5xtsJAo10NsbTNBV0QGJGKkNhR/Boh/k9QodVLC+87Nc/NPD0HN9dSBye83outI8JjX1WDyQWRjioMkL5FUDuiuGld7lkkYjGUUimziB66SLlF1rLIZFJm6YXji51W1FVXobquzdQVhPhQn9h7zJ7B97gqDHhq72D/Z5vx2YlsfhpWQnzLr0PLjuu5mS241D6KC6bKCtQY61BVmo/MOzmosLjhcTvQUFmEnMw7uH0nE3nFlWiwOtucFeiBraEKRbmZyMi4jcycQlQ12JlWD5wWI0rzc1FcVoGyomzczStnbtupJ0NItwlqm9bnFQb+/CYua4IhrSrArTsOTPvxz/GMNA2ffbQDF7MrYXJKYYgagElz5mPOpIEIVYlhr83C0Z3bcPjCHRTVWqHSR6L/+GewYtlUBFZfxda//gIbL1bBJQ9G6vQX8LWXlmJ0oq7d7I2EeJNfhvbRgWV1FNqfY1OODrNWrcO8UXFQe8qw69c/weHAlfja6hlIVDfg9tFt2J7WiOELV2PhKDVufPgG/n0nEPNXLse0gYEwZZ7Cx//egvLh38YPXxwCTdVVbNl+HMbw2Xh58SC0+caKEJ/wu+Fx5wL7IGJEjp2NqUMSEKCQwVN+Gvvv9sfqLy7AoHAtVLpIjJj1DMZFyVB85y4qqm/j+DUxJsxfiKmDI6GSqRA6YBpWvDAVttOHcdfC3y0hvcivQtuzwLI0CArSQCZretmu4hyURo3A4IDWX4NIHYaoYC0ktjrUFZeiTBWJhBAdlG0qDKgiBqMfMyooruvWkyCkR/wmtD0PbAfYHIruv7OWFhFzhQf8hjzsjWnDlTwGfhFanwSWIYlJRnTxZdwwsnfcxNNYhtKqBrgVgQiMjkSkuQR51UZY2d3ULLbCQMl15DpiEWPgU8s+N3ZpWiPEpwQfWjYIvggsSxo2Gc+kZmPjP3bhRqkJloYypB3eh7NFTkSlpiI0aCBmDPPg7K5dOHa9FGaHHeW3j+OjzSehmDQLqeyRlXI5ZE4LairLUcUWmxbGfj3Shwk+tL4KLEssj8RTr3wF4y1H8afvrcOaV/4Dfz9pwuCZCzBtaBjkEj0GLliNZf3tOPzm97H2hefxnT/uhmXYGnxxUX+o2RGyNgqpKcGoPv5XfPs7f8K+q6WwUW6JDwn6Kx9urvJuH+l071c+blhqa2GVa6BXK1sqtHuYBzDXVaO2wQKnWwy5WoeAAD3UCklrBYFGI2rrjLDYXRDL1NAFBsGgkfGXe+CwNKCupg5mjxKBwYHQqZovI8T7BBtaLqs9OjTx3tAS0jcIanjMlqB0uTywMYvLzizseg8WKsRO+iLB9LQlmSdhqsnj17wnMGIgQuPH8GuE+D/BhJYQ0jl+8T0tIaQVhZYQP0OhJcTPUGgJ8TMUWkL8DIWWED8jmK98KvIuorGuiF9rIpbIEBw1ENrgJL6FECKowxhljkwoFHwDw2IRweIKQkTiBGhD+vGthDzZBBXaeysMsIchNphEqDfLIRZ3b/aloKjBCEsYx68R4v98Flo3k7jmCcc740ETu7EVBlxgDyLuxCyN91QYqDe6AC2dMED6Fp/tiDp8+DAKCwt7fFK4mAm9TCRhFjx0YT8bRCJpyyIWSyCV8ndCSB/is9CeO3cOGzduRFFRkU9nc2DvmZsJ5jFVGCCkt/n0Kx82uBs2bEBBQQHf4l1sVt3MX9zMFo/kRG1hPkqrKlCUfRNp59ORX29CcUYGyq2tHyoeuxGlxUUorTEz98/cJj+P+bkKJbkZuHzhLM5eTEdmST19RpDHRvIzBv+zV504cQIlJSVcT1tVVYV+/fohICCAv/R+9ZVZUEqMkPPTmz5Ku8C2Zq4du53ZGpaGQcfVtjXi/L/exZ5bmci6fhlnTt+FODUKl3/3e5SMW4yh/DSqnqqr+GznIWRbwjEkSYpz776NPVl5yLqRjnNnzuDs+XO4lm1C+OChiFT79DOPkA71yrvu4sWL3FA5L88758t2JrAdq0V2jgkx09fhp394DYsTOlPzthp3b9YgfPJq/Nfv/ow//PgLSK07iE9OlnXtoQnxkl7rKtLS0nDt2jV+rfu6H1iWFFGjn8KEgbHQyaWdfPEyxEyci+lDYqGVSaGPHo4Zk2NQll1IVfLIY9FroR05ciSGDBnCr3VPzwLLUsFgUEMq7crLViMoRNNyG/YrLIVGB4nV0lRik5Be1iuhHTNmDNasWcNt13ZXzwPbAYkEYom7G3NJiZg/3noShHSNz0M7duxYrF27FvHx7M6g7vFJYBkikQY6pREVVa0DXbvFisYGE5yUSSJQPg3tuHHjuB5WiIFlicQ6DBwaiEuf7UBGtRmN1Zk4fewwzmbUsJ0pIYLks9CygV29ejUXWLG4+w/TUundBz2fSCJHyqJXMcP1Of5zzWK88PX/wwVjMAYM7cds/RIiTD479tjhcEAqZQ8p7FyX1dGxxz2bsPzeyco9cLA7j8RyyGVSiPmn5WE+EewWM6x25pNBLIVczjxn9o9ECoVMDIeFuY1UwfzcXHHAA7fDCotTCjVVEiCPgc96WpmMeUN3MrAd6VlgOyKCTKmGkv2qp83TEokkULClQAwGBOi1UCmVUCqbQsrdRsXcpiWwLBHEMhU0FFjymPh8R1RXOJ0e2B1uWJjFYWEW9t8eLM7m8pSE9CGCOZ+2PPccTDWF/Jr3GML7IzhmOL9GiP8TTGgJIZ0jqOExIeTRKLSE+BkKLSF+hkJLiJ8RTGhPnjyJsrIyfo0Q8iCC2XvMBpad2UKlogMICXkY4YQ2+zQaatrPJSWRyBAaOwy60P58CyFEMKFljz2WuzKhbFthwCyCya5HRL+JTHBT+FZCnmyCCu29FQbYZ2YyiVDTIO7Wcczs7YOjhyEiaTLf8mAetxsulwsiqQySBzyU22GDS6JAJ+eeI8QnBBXajioMeJg/Pakw4NF0psKAA2U3T2D7J2fR79XXMDeio1S6cOZXq3Fs9ga8NqF7JUoI8QbB9xnsaXJSJrBssYAHLVycuY+e1lb27B1JJ3LeeRIMXv0aXhjI3j8hj4/fD/TYrLIzW/TGLGsBicPQL4BOyCOPl1+Htjmw3FQ0neFsQMndyzh5aB92792PY+euo9TU5sYuG+pLMnHpxCHsP3AYZ67losbsaOrEmb8rr5/EjaqmeW9spmrk3biO3JJcpJ8+gv37D+LEpdsob7Bxg3lCfMVnFQa6yvcVBhyouHoQ23Yfx5U7OcgryEPWrXRk1gRjwJBwuKtykHbsBHKY0JVlZeDO3Vu4ei0LZk0U4iIDoZR6cOkvX8NOw/OYGe9BbUE6tr35d1w0WlB4+zbu3LmBy2m3UKeMQGJ0KNRsVTBCfMAve9rOBPY+nnpcP3oRVeETsPZ7P8Wvfv5f+PoL4+G6k45iG3sFF2wOF5RRY/Dc13+I/37tu1g1DLh4Kg05lY0d9J4OmBprYZGmYvGXvof//q8fYt14BW5evYnCKit/HUK8z+9C2xLYLk/2JoVGJ4O5PAe3M7JQ2iBB9PAFePmlaYji9i1JoY9IwogJYxAfqIZSF43Rc6cgoqYIhbV1sN/3WCJoQuIwbOJEpISoodCEYdjIAVA6zUyYzTREJj7jV6FtCWx3EiHSY/DT8zE52oM7R7bg7d/8FL9+aweKdbEIkbNXEEMqVUCpbP2VSIIiECm2oMFq72AeZAnkci20+tavf6RKFeQeD/P8qPYA8R2/CW27wN4XoM4QQxc3CrMXLcfKFcuxbOFspEqu499/3IQbFv4q92I2Sz0evpZApzZR2S+oCPEtvwhtS2B7Mv+xrQRXL91ClVOD+IHDMe6p2ViwciX6VR/F5VL2k8AFh8MCs7m1G3dX5KMQKgQqlKDDKYhQCD60bEZbJizvCZEN2Yc/wvtbDuJGiQl2WwNKrh3BtfooxASyvwYXqnOu4cBnn+FyYQ1MFXew78M9KGO2W/uFBUFOXSgRCMGHlpsF1RubiPJ4PP38fMSU78drz0/H2Ilz8Y33izHrx/+BpwzM5SI1YpIGor8hB2997VnMXvoq3s/rh2XLpiMpXEXDXiIYgj722LsVBgjpGwTZ07KfItzeWq9WGCCkbxBUaG12NyxWFxqZxWpmFltPFrbKgCAGEYR4lWCGx5UFaWisK+HXvEcf2g9BkYP5NUL8n2BCSwjpHMHvPSaEtEehJcTPUGgJ8TMUWkL8DIWWED9DoSXEzwjmK5/iu8fQUJXLrzWRSGUIjx8FffggvoUQIqhjj5Xu9pOVm81AnVmD8ITxTHBT+dauEYnYic5pQEH6DkGFVo2s+yoMNDYCNUa+oYvcbiAoejidMED6FEGF9kEVBtzcKQQP7y25F+FsPYePfVXGBifcajrLh/Qtgh83shO4SJinyUb5QQv3IrjUtrayQ2IxjYpJH+T3b2s2q+xUNL1RYYAQIRD88PhhmgPb8WRvHZwE76hH/q1ruJFVjDq7GLrQeAwfOwbxASKYa8pQkF0Mt0GJijt58ESys1iYUWTRI6VfLIL45+V2WlF45RRqoqdhZBTNHEV6n9/2tA8PbEfsKEk7gB37TiA9Mx+FRdlIP74VH3x0DuUuF4ylGdj/wbvYeugUrmUVotLYCHP1Dez5/ATulBlbOnKnOQv712/HzbblRAjpRX4ZWjajLiYzXZqd0VOPG6euwxQzAc+/+h384LvfxpdemAF9RSYquAoDdpgdVsgjxmHFK6/g2enDkDR0DPo7C5FdVg0zP/GxJecUrksnYUq/NtWvCelFfhdaNjrcNmyXOzoFAoOlqMm6hrTLN1FQJ0LEwFlY/dJMxHKjXAm0IXEYOGIoovRKSEUiiFUJGD9AgrtZ5Wgws58QTmSdvADt1OmIpYqX5DHxq9A2B7Z7FQZ0GDxvOeYP1qHwxBb85b++i//83WZkSsJg4EMrk6mgUrVNoxzxE4ZCfPcOihrMcNlv48SVYEybEsHtoybkcfCb0LKB7fKQuB0R1BEDMYUJ7uovfAlfefULmBmWg3/9+j1cMfNX6YAsaizGKrNwrciIxvT9uB41B5NC/HZXAOkD/OLdxwWW62a51e6xFuHS2asoNUsRFp+MgcPHYuby1RhuO430kod8XyQJwaQJAbiWdhdndt9AyvxJ0FNmyWMk+LdfS2AfkqtOkTiQd+RD/H3TXlwtbIDdVo+8s9twtjoB/UIfNtgVwzB+MiJuf4rNd5Iwb5SGbyfk8RB8aL1WYUCWiCVfbupZf7FmJsZNmofvbTFjxf/+GNMCmF+ERAalSoWOalqLdOPwdJIZkqcWYLCCag2Qx0uwB1f0vIelCgOkbxJkT9vzwBLSdwmqp5W78qFUiJuy6oXAWqxOSPRDqKclfYpgQltdfB0WYxm/5j3aoHgYwvvza4T4P8GElhDSOfSNIyF+hkJLiJ+h0BLiZyi0hPgZCi0hfoZCS4ifEcxXPoUZB9FQmcWvNRFL5YhIGIOAyKE04TghPEEdEaXydFBhwKRESOwY6MJS+NauYU8EkEhpahjSdwgqtGpktwstiw1ubQO/8ij3vBSXCzBEUYUB0rf4LLR1dXXQaDSQyTo3zeiDplClCgOEtOezDcXDhw/j+vXrcDqdfEv3UIUBQtrz2dv61q1b+Pjjj7nguthxqo+wWaUKA+RJIvkZg//Zq06cOIGrV6+itLQUISEhiIqK4i/pWH1lFpQSI+QdTR3xAM2BfdDsjHa7C25pGHRB8XxDDTIvHcfBA4dw7Nxl3C0yQhURiwB3He6mHcNteyRig+RM385yo/LWSVzItyHAYIDKVYlrx/dj94GjOHP5FopqndCGhCNAQd056V0+f8fduXMHGzduRHp6Ot/iHWxOuzY7ow2F5/Zg59F0lFgAmcSJsuu78a9/H0OxzYzS26ex70gGGprvy12Jq8wQ/8KdMphdVtzdtwkfn86FRSSD2FWH26c/x9bP01BFPTzpZb3STWRnZ3PBvXz5Mt/SM1wPy6a2K7Mzeupw81wmXIkTsWztK/jSF1/BSy8uQLyjFEapAbEpA6HOP4879U2pdVXcwY06HfolRCFQVYOLBzKgfWoZ1r3yJXz5lXVY8cx4hNirUO/grk5Ir+m1sV1eXh6Ki4v5te7jAsv9xa12gQbhERKUXD2DE6cuI6fahZB+U/Dc2jlIUKsQFp2E+IByXL1dzTyGC2W376JBH47YqAioJXrEMCPsjEP7cPziLZRbNeg3cgYWLhyPSKrBRXpZr4V2zpw5mDJlCr/WPe2GxF0l0mDgwjV4YVI0qs5twR+++yW8+l/vIt0eAJ1UAm1YNOLiQ1B19SaqHFW4e7cBhtBoRIZrIBLpMfbl7+CloSJc+uwt/PfX/x9+/ObnyHFqmUDz909IL/HpjqiSkhLu57lz5+Kll15CQEAAt96RR+2I6s6QuP2OKBGkKgMi4lIweORYTJ4yATHWc/jXP68heu4kxKjlcBkrkZ+ZDYlBisy7lQhJGY1RycFcXR+ZNhSxSQMwbMwETBiTCnHeCew5VoHYicMQSr0t6UU+72mbA6vVavmWrmMD2/MKA/k4d+ISCutd0IdEIDoxFROffQWT5ZdwrZjpukUqRMZEIdRgwsld59Go1CIyPgZKdldyYwb27b6EerEKIeHRSBw4ClPmPo1kz01k0Z4o0st8Flr2SKiFCxfi5Zdfhl6v51u7riWwPc0GM4wtO/MJ/vavT3HyRiHKS/OQvvt9HG8YhiFRTWNcVWQ8osOkuHvyOqyaWMRH88dUMj1pwedv4tfv78eN/EqU5t3AhSN7ccfRH/1CaHxMepfPDmO8ePEikpOTERgYyLc8XEeHMfYssPdPVu6suoldmzfhs8MXUdAgQeTg6Vj7rW9gfkrzKMCJgtNb8NbHaUhZ9i2smxHP5pVjLzmPjX//N3aeuQWjJAgDJi/C6nWrMDlOxV+DkN4hqBMGHnuFAY8VuSd3Yu9VI4YtexlTYqgILRGeXtt73BU9D2w3eNyw1eXjVlYpXLoUJEdQYIkwCaqnlTryoZDzFQZ6stOJ44HV6oTMMPTRPa3LhuqCdBzZcxIZ9UqMXLgK84cFc6ceECI0ggltbdltWE2V/Jr3aAzR0If049c65nE2ouTGUew8UoLIcdMxbUJ/BFJHSwRKMKElhHSOILdpCSEPRqElxM9QaAnxMxRaQvwMhZYQPyOYvccetwvszIv3Yidoo4nKCWklqIMrTFWZTED5BoZIIkNo7GgERo/gJh0nhAgstPdWGLBY2AoDChgiR0D3iAMkHkQiU0Gm0PBrhPg/QYVWI2IrDLR2tewzY4Nb38g+xTZd8IO0eSnsj06XBwERVGGA9C0+C21lZSV3Hq1C0bk6Ovee5dPMqxUG3E5Y7R7I5VKIxZ34ECBEgHy2h4etMHDlyhU4HD2brrDTFQa4EwxaWzuqMOCpu4Ojp2+issHGtxDif3wW2szMTGzZsgVpaWm9U2GgE2cFuatuYv+xKyirtzb1zIT4IZ9O7Hbjxg1u2lSDwYDY2Fj+ko51p8IAm9OHTfbWOrFbDIou7mE+RLbi4PnbKMy9jbvWKIxIcOPCx/tQprbj8s6t+PzACVwvMkMVFARpTQaO7t6G7XuP40peIwKioxCkksHtqELa9v0olphwccdW7Dx0irlNI1SBYQjWK3z3KUgIz+fvsZycHGzatAkXLlzgW7zjUYFtT8QEMQqJ8VEwBEegX/9U9I/SQ+SqxYVPN2DTjlOoUoYjNkKNqisH8cn7/8CHhy6hyB6ImJhAmK9uw3s7r8LIfAi4HDW4tP19bNh+BrWqSCRE62HMOIode44js7pnxcYI6Yxe6RgKCwuxYcMGnDt3jm/pGW403OnAssQIThqFmdPGIiFlFGbPX4L5Y6MhE4vgEVmhSpiBhYuWYPnza7B8WjIaMm+gTJSIWUuWYsXKVXh55XDUnL6IPLOdeWzm0ZnN5qDUp7Fo8VI8u/JFrJk/EpLyO0i/XQLaWia+1mujObYQF7tHuafYnLITlnc+sA8nVYYgdXh/hGrkkCr0iE2MR9zAFCTEJyMuSAWZXI2wYUMQZ6xAMbdtLmKuF4zEockI0TK3kWsROXQYkvUSGMtKYKSNZeJjvRZadjrVmTNn8mvdw2XVi4FlicQyboqbZjK5AmpdAFRKJbcfmiNTQeWxt/SiIpEEUmnrV0YihQ4GpZTZ3rXA1pvzWpEnUq+Elg3siy++yFWG766uD4m7T9T2WErew7/VdcPBhtUjBn39S3zNp6FlJyxfvnw5N2G5XC7nW7uODSw3O2NPA8uEUcSky87cWffvygOXy4i6ikYmqG54PC5Yi/OQ22CBPCAEAb02diFPKp+9xVQqFRYtWoQVK1Z4J7DeGHYGRiC8MQvnrmXgTn4V7N06GMwDa30hDm38Oz4/exU3r53Ftq17kWUPROqgRGiopyU+5rPQzp49G0uXLu3xkJjb6eSl7URJyEgsfjoaOdv+it++fRhlLgUikpMRomizfarUIywiAiG6NmcViTSI6h+HIGnT8VdqfT9MmpaAzM/exG9+83ecakjA/BWLMTZB3XR9QnxIUCcMPPYKA51gb7yL9d/7HZQ/fhdr4lt2VRHSawS5BdbzwBLSdwkqtA0mJ2rqHKhmlroaZqnv2dJo6YVdzYT0MsEMj42V2bCaa/k171Hrw6ENfPhxz13BHsZ4/dAZSCctwJAA2utEep9gQksI6Rz6VpEQP0OhJcTPUGgJ8TMUWkL8DIWWED8jmL3HLocVbve9Mz+IIJHKaaJyQtoQ1GGMjTWZ7U5tY891DYoajsCYkUx428xiTsgTTFChvbfCgNXaVGFAFzoYmqB4vrVr5Eot5CoDv0aI/xNUaDWiHKhVrV0t+8zY4HanwgDL4fBAFz6MKgyQPsVnoWXnhAoMDIRS2blh7cMqDDRV03v4PjPuKGNn67HG7Mu6r8IAIX2Az/YesxUGzp8/D7vdzrd0D1thQMz9aXqyHS1cH8zltbW1owoDhPQFPntb5+bmYuvWrdy0qU6n7+YD5s6RZ/9q7WQJ6dN8WmHg1q1bKCgogFarRWJiIn9Jx3xbYSCeGS+bcHPfblyzqBEaHAAFu5va40J9xg78+7QHwwaEQuI0oeTmSXy2aQM+2r4PJy5nw6IOR0SwHgrmuZ17fzNyDApc++h9bDuRC2X/oYhSd2JbmxAv8vkAsqioCJs3b8bJkyf5Fu94VGDv47ExgbyK28XVsDafXM9s91pKr+Lk1VK44ERNbjoO7j2GsoAhmDJzKoaG1OLwR9txLrcSdo8FuWc+x/oPdqEiZCgmTh6OSJoQijwGvbLVV15ejo0bN3otuF0ObGd47KgqLUWNNQyTFi7AM3OewaKVL2Lh6GiwU0hxj4caiPs9gyXzZ2PqeKaXbbOnm5De0mu7aqqrq1FfX8+vdZ9PAssSKRAYbGDG6VewbcNnOH2rBHZ5FCYvegbjEoOZ4TF7pRCkjkpFiEYOMTsdK3dDQnpXr4X22Wefxdy5c/m17vFZYDkShAyYgjWvfhnjZTew4b+/jOdWfRV/OZSFRmfzt8RSyNtUIyDkcfD5O5Cd83jVqlVchYGezn/co8CKpZDImC1Xl7upni3Pw9xp0yr7bbAMhsRxeO7bv8E/P92Jjb+Yh9rP3sfWtFw00CRzRCB8Glq1Ws1VGGCXnmBD1fMKAyqEGjyoKKpEXYOdCa4b9sZaZN/Jb9ox5WxAwa3TOHTkGqqtDriYXtWQMgmTUmQwNVhgpyqWRCB8Flq9Xo8lS5ZwS096WDan3pmwXI6ksSMhzTqJfQcP49ylczi+9yPsvGFt2l4VS+AxV+H64a34aOdRnD53Fsd3f4KTFYHoFxkENZ1oRATCZ9/Tst/Njh07lvu3Mzr6nranQ+J239MyZMHxiFfX49rpwzhyNgMmw3isXDaEuf9IjBkWi6CQCIRqLcg4fQTHTl1EZp0WY5Yux9PD46BlhtY1eSVQDZ+EVD1t15LHR1AnDPhDhQFCHjdBdhneGxIT0vcIqqf1WHK54TE3Gu7mkLiVhxseK4Pp1DzStwgmtKaaQtitPT/44l5KTTDUAZH8GiH+TzChJYR0Du0GJcTPUGgJ8TMUWkL8DIWWED9DoSXEzwhm77Hd2gC308av8UQiyORqSGQqvoEQIqiDKyy1mZC0mUHVAykCwoYgKHYUpHIN30rIk01Qoe2owkC9SQ51UCrUhhi+tWsUagOU2hB+jRD/J6jQakS57SoMsKw2DxrM7E+dmNyFOyWold3ugSaMDmMkfYvPQstOnRoSEsKdCN8Z957l04wqDBDSns/2HrMVBk6fPg2b7Z6dS13UmQoDHC6vra1UYYD0VT57W7PzHX/66afcpOW+rjDgu8neCBEen/ZFJSUl2LJlCw4dOsS3eFfnA+tB/fXd2PT5aWRX2bjBNtfqsuDSht/iw6sWZsWOmpzz+Oj//gvf/upX8I0f/BLv70tHhan5A6cWx9/4Kw5mXsXHv/8JXvvZ33GmnD4pSO/z+QCSnaj8o48+4obL3tT5wLJEUBkkKLp6Hdml1XDwqXVZb+DwwUpoI6RoKL6JA1s+wW3pcCxctQbLJocjb/827LmcjToutzaUXDuIDe/vgnnQM1ixcjZSDDTzMel9vbLVV1NTw1UY8FZwuayys1p0oaOTR43EcHUVckoqYbQ3pdZ67TBuRM7B5FAPbA4X1DFTsWLtIsyYPBnT5j2PeYNdKC4uR525uW+uh3r4SqyYMxEjBychlC09QEgv67VdNQ0NDbBYmGFoD7X0sM056ixJGMaMNCA/mwmhkS2/aUf6octInv8UAsVyBMWPwLzn5mOQQQmpRAypQodQgwIehxMuZ/ODhWHA8AToFNLOfAFFiE/0SmjZKVTXrVuHhQsX8i3d0xLYLvSwrUQIGTse4UUZyKmpg910DnszRmDhRA1ziQceaw0yDr+H/1y7GNPGj8aIIcOw6EfrcaWobX1dMSQSiit5vHweWo1Gw1UYWLRoEd/SPWxf1+O9xNohmBJbhes5VSg7ehCl4+ZiBDsls9uMvKv7sGHLTSSu+y0+PnIOl29cxc7frsWI6O7P2UyIL/g0tAEBAVi5ciUWL17Mt3QPm1PvFI5WYejkRJRdvYK9Byoxac4gsIdyeJxWmIxGSPvNwsIpqcy2qhuNVYXIKaqCsaUuJiHC4LPQBgcHY+nSpZg3bx5ksu5Pz89l1SuBbaIYMAmD6o/jmG0EnurX1IuKpCoEhkVCX3cRu3bsxcGD+7Fnxx5cZLd/LS7mA8NLD06IF/iswgBbFmTEiBHc8LgzeqPCAEdigMFZBvuAWZjePwRStiK8SAqNLhgGaSVupl3BnWITtMkTMGtsEgKCo5EUy9yH0sP0vkboh4xFkrZXdgUQ0iFBnTDQ9thjLqs9CCwbeaowQPoiQXYZPQ8sIX2XoHpaV2MuZFJRU1Z7HFgPHE431CF0ah7pWwQTWrOxDA6riV/zHjoJnvQ1ggktIaRzaDcoIX6GQkuIn6HQEuJnKLSE+BkKLSF+hkJLiJ+h0BLiZyi0hPgZCi0hfoZCS4ifodAS4mcotIT4FeD/AzvcLiRW0F24AAAAAElFTkSuQmCC;" vertex="1" parent="1">
          <mxGeometry x="130" y="30" width="237" height="553" as="geometry" />
        </mxCell>
        <mxCell id="BdCa2L88DfVKsN32iZGJ-1" value="&lt;span style=&quot;color: rgb(0, 0, 0); font-family: Helvetica; font-size: 12px; font-style: normal; font-variant-ligatures: normal; font-variant-caps: normal; font-weight: 400; letter-spacing: normal; orphans: 2; text-indent: 0px; text-transform: none; widows: 2; word-spacing: 0px; -webkit-text-stroke-width: 0px; white-space: normal; background-color: rgb(251, 251, 251); text-decoration-thickness: initial; text-decoration-style: initial; text-decoration-color: initial; float: none; display: inline !important;&quot;&gt;etc contains most of the system configuration files&lt;/span&gt;" style="rounded=1;whiteSpace=wrap;html=1;align=left;verticalAlign=top;" parent="1" vertex="1">
          <mxGeometry x="270" y="130" width="340" height="30" as="geometry" />
        </mxCell>
        <mxCell id="BdCa2L88DfVKsN32iZGJ-2" value="&lt;span style=&quot;color: rgb(0, 0, 0); font-family: Helvetica; font-size: 12px; font-style: normal; font-variant-ligatures: normal; font-variant-caps: normal; font-weight: 400; letter-spacing: normal; orphans: 2; text-indent: 0px; text-transform: none; widows: 2; word-spacing: 0px; -webkit-text-stroke-width: 0px; white-space: normal; background-color: rgb(251, 251, 251); text-decoration-thickness: initial; text-decoration-style: initial; text-decoration-color: initial; float: none; display: inline !important;&quot;&gt;Home contans folders corresponding to each of the users registered on the system&lt;/span&gt;&lt;div&gt;&lt;br/&gt;&lt;/div&gt;" style="rounded=1;whiteSpace=wrap;html=1;align=left;verticalAlign=top;" parent="1" vertex="1">
          <mxGeometry x="270" y="170" width="310" height="40" as="geometry" />
        </mxCell>
        <mxCell id="BdCa2L88DfVKsN32iZGJ-3" value="&lt;span style=&quot;&quot;&gt;/var is usually used to hold most of the data on the system&lt;/span&gt;&lt;div style=&quot;&quot;&gt;/var/log contains all of the system log file which can help in debugging problems&lt;/div&gt;" style="rounded=1;whiteSpace=wrap;html=1;align=left;verticalAlign=top;" parent="1" vertex="1">
          <mxGeometry x="270" y="550" width="470" height="50" as="geometry" />
        </mxCell>
        <mxCell id="UVRk4LwdsmJc4tpfmAYj-2" value="/dev and /proc contain references to devies as files" style="rounded=1;whiteSpace=wrap;html=1;align=left;verticalAlign=top;" vertex="1" parent="1">
          <mxGeometry x="270" y="90" width="340" height="30" as="geometry" />
        </mxCell>
        <mxCell id="UVRk4LwdsmJc4tpfmAYj-3" value="User shared libraries are usually in /usr or /sbin" style="rounded=1;whiteSpace=wrap;html=1;align=left;" vertex="1" parent="1">
          <mxGeometry x="270" y="420" width="320" height="30" as="geometry" />
        </mxCell>
      </root>
    </mxGraphModel>
  </diagram>
</mxfile>
